<svg id="Layer_1" data-name="Layer 1" xmlns="http://www.w3.org/2000/svg" viewBox="0 0 66 85"><defs><style>.cls-1{fill:#f7a896;}</style></defs><path class="cls-1" d="M27,16.05c1-2.41,3.05-5.11,5.13-5.3.71-.07,1.23,0,1.42.82,0,.16.11.41.22.44,1.36.35,2.53,1.48,4.13.86,1.29-.49,1.53-.29,1.93,1a4.55,4.55,0,0,1-.2,3.62c-1,1.94-2.12,3.85-3.23,5.75a2.67,2.67,0,0,1-2.31,1.18,7.51,7.51,0,0,1-3.3-.61c-2.67-1.1-3.13-1-4.37,1.54-2,4.15-3.9,8.38-5.82,12.59-.56,1.23-1,2.5-1.56,3.75a5.12,5.12,0,0,0-.31,3.3c.32,1.43.52,2.89.83,4.33.14.65.41.67.89.17.82-.85,1.63-1.71,2.49-2.51a8.43,8.43,0,0,1,3.64-1.71c.92-.26,1.3.14,1.06,1.08a8.49,8.49,0,0,1-2.88,4.47,7,7,0,0,1-3.64,2,.76.76,0,0,0-.71,1c.28,1.72.54,3.46.86,5.17.12.66.51.78,1.32.4,1.42-.68,2.86-1.34,4.22-2.13,1.66-1,3.25-2,4.86-3a7.9,7.9,0,0,1,.67-.51c.17-.09.47-.14.58,0a.71.71,0,0,1,.15.59,4,4,0,0,1-.4,1.11c-.53.93-1.08,1.85-1.64,2.76a10.43,10.43,0,0,1-5.36,4.2,28.63,28.63,0,0,1-3.39,1,1.34,1.34,0,0,0-1.13,1.27c-.19,1.39-.41,2.78-.72,4.16a24.08,24.08,0,0,1-1.07,3.73c-1.83,4.55-.08.35-2,4.87a5.78,5.78,0,0,1-.83,1.25.48.48,0,0,1-.45.09.46.46,0,0,1-.19-.4c.15-.48.33-1,.53-1.42,2.14-5,.8-1.27,2.42-6.51a30.78,30.78,0,0,0,.53-16.05c-.18-.77-.34-1.54-.47-2.32a2.71,2.71,0,0,0-1.77-2.26,25.28,25.28,0,0,1-7.84-5.19,5.16,5.16,0,0,1-2-3.62c0-.64.19-.84.79-.63,2.67.94,5.3,2,7.31,4.07a.47.47,0,0,0,.13.11c.55.23,1.22.78,1.62.62.71-.28.28-1.09.18-1.66-.58-3.38-1.21-6.75-1.79-10.13a29.69,29.69,0,0,1-.35-3,1.32,1.32,0,0,0-1-1.33,16.73,16.73,0,0,1-6.84-4.5,11.39,11.39,0,0,1-2.73-5.36,2.8,2.8,0,0,1,.15-1.48c.12-.32.51-.54.78-.81.25.27.63.51.73.83a4.24,4.24,0,0,0,1.51,2c.54.47,1,1.07,1.49,1.57q2.17,2.1,4.4,4.17c.15.14.54.26.58.21a1.29,1.29,0,0,0,.31-.73c0-1.29-.1-2.59-.16-3.88a2.52,2.52,0,0,0-1-1.88c-1.49-1.27-2.94-2.6-4.4-3.91a2.26,2.26,0,0,1-.74-2c.19-1.73.46-3.44.73-5.16a7.29,7.29,0,0,1,2-3.68,2.32,2.32,0,0,1,2.88-.77,1.54,1.54,0,0,0,1.7-.25,2.25,2.25,0,0,1,3,.11c.72.58,1.83.61,2.23,1.68.07.2.56.31.87.34,1.34.15,1.65.38,2,1.58a18.39,18.39,0,0,1,.81,2.55,6.71,6.71,0,0,1-.9,4.23c-.31.6-.68,1.18-.93,1.8-.89,2.15-2.7,3.07-4.79,3.61-.44.11-.89.15-1.33.25-1.12.23-1.27.39-1.17,1.43.26,2.91.48,5.83.84,8.74s.85,5.66,1.34,8.49a21.72,21.72,0,0,0,.83,2.59c.43-1.17.7-2,1.06-2.84C21,34.37,22.5,30.8,24.14,27.27a35,35,0,0,1,2.2-3.8,2.19,2.19,0,0,0,.17-2.53,1.1,1.1,0,0,1-.09-.14c-1-2-.92-4,.91-5.5a12.69,12.69,0,0,0,1.24,1,.74.74,0,0,0,.71-.13,14.06,14.06,0,0,1,3.09-3.07.88.88,0,0,0,.11-1.23c-.26-.46-.69-.34-1-.15a6.51,6.51,0,0,0-1.53,1C29,13.61,27.84,15.1,27,16.05Zm1.72,3.27-.49,2.6c-.17-.77.25-4.13,0-4.88a.56.56,0,0,0-1-.18,2.07,2.07,0,0,0-.42,2.34,5.36,5.36,0,0,1,.36.94c.18.56.13,1.4,1.13.81.06,0,.37.22.42.37.16.58.42.7,1,.44.76-.35,1.58-.56,2.35-.89.33-.14.76-.4.85-.7a28,28,0,0,0,1.59-6c0-.25-.1-.65-.27-.72a1.1,1.1,0,0,0-.91.05,17.91,17.91,0,0,0-3.7,3.42c-.39.52-.3,1.12-.65,1.68A4.08,4.08,0,0,0,28.68,19.32ZM19,8.3l-.19-.48A14.17,14.17,0,0,0,18.3,6.4c-.46-.88-1.21-1-1.87-.29a5.82,5.82,0,0,0-1.19,1.8c-.54,1.47-.86,3-1.44,4.48a4.18,4.18,0,0,0,.3,3.7c.15.29.29.6.44.9.42.84.72.93,1.39.39s1.31-1.06,1.92-1.63a2.19,2.19,0,0,0,.65-1A19.88,19.88,0,0,0,19,8.3Zm-.84,39.88A2,2,0,0,0,17,46.4a6.67,6.67,0,0,1-1.09-.76c-1.38-1-2.73-2.15-4.18-3.09a13.57,13.57,0,0,0-2.63-1.08c-.15,0-.43,0-.47,0a.86.86,0,0,0-.08.61,1.67,1.67,0,0,0,.41.72,20.19,20.19,0,0,0,2.4,2.32c1.82,1.31,3.71,2.5,5.6,3.7a1,1,0,0,0,.93,0C18.13,48.71,18.14,48.29,18.17,48.18Zm12,8.23c-.69.45-1.34,1-2.07,1.34-1.94,1-3.91,2-5.86,2.93-.25.12-.61.27-.66.48a2.94,2.94,0,0,0,0,1.25,1.51,1.51,0,0,0,.87,0,29.31,29.31,0,0,0,2.85-1C27.62,60.44,29.5,59,30.16,56.41ZM5.93,20c0,.17-.14.33-.1.46a5.24,5.24,0,0,0,.4.91c1.69,3,4.38,4.85,7.36,6.38a.92.92,0,0,0,.47.14c.2,0,.47-.12.54-.27a.65.65,0,0,0-.08-.6,2.3,2.3,0,0,0-.69-.43,7.74,7.74,0,0,1-1.16-.66A30.12,30.12,0,0,1,8,21.32a7.54,7.54,0,0,0-1.55-1.24A1.5,1.5,0,0,0,5.93,20Zm28.71,1c.14-.11.47-.25.62-.51a15.6,15.6,0,0,0,2-5.46.89.89,0,0,0-.54-1.09,1,1,0,0,0-1.34.33A2.36,2.36,0,0,0,35,15c-.49,1.67-1,3.33-1.42,5C33.41,20.72,33.79,21.1,34.64,21ZM21.53,51.72a8.81,8.81,0,0,0,4.69-4.49.55.55,0,0,0,0-.47c-.06-.08-.29-.09-.42,0a9.3,9.3,0,0,0-5,4.06c-.11.16-.15.54-.07.6A3.27,3.27,0,0,0,21.53,51.72ZM21.46,8.17c-.06-.55-.36-.93-.85-.88-.28,0-.52.46-.75.74-.06.07,0,.21,0,.32-.11,1.79-.24,3.57-.31,5.35,0,.28.22.56.35.85.28-.15.66-.22.81-.45a2.83,2.83,0,0,0,.46-1.25C21.27,11.29,21.35,9.73,21.46,8.17Zm-9,4.84A6.92,6.92,0,0,0,13,12.1c.59-1.81.64-3.79,1.82-5.41.11-.15,0-.5-.08-.75-.23.12-.54.18-.66.37q-1.5,2.34-2.91,4.74c-.17.29-.29.88-.13,1A7.1,7.1,0,0,0,12.51,13ZM9.9,11.6a2.77,2.77,0,0,1,.19-.79C11.15,9,12.24,7.25,13.3,5.46c.11-.19.21-.58.11-.69a.82.82,0,0,0-.73-.21,2.35,2.35,0,0,0-1,.64A7.09,7.09,0,0,0,9.9,11.6Zm3.88,6.63a7.45,7.45,0,0,0-1.66-3.8,5.12,5.12,0,0,0-1.11-1c-.62-.4-1.45-.36-1.49,0a4.26,4.26,0,0,0,.28,1.41c0,.09.15.16.24.23ZM22,13.57a2.61,2.61,0,0,0,1.58-2.72A19.89,19.89,0,0,0,22.71,7a.54.54,0,0,0-.43-.12.8.8,0,0,0-.27.52c0,1.45.07,2.91.09,4.36C22.1,12.31,22,12.89,22,13.57ZM35.88,21.4l.42.18A15.6,15.6,0,0,0,38.93,16a3.29,3.29,0,0,0-.14-1.48c-.06-.24-.33-.43-.58-.73a19.08,19.08,0,0,1-2,6.39A4.16,4.16,0,0,0,35.88,21.4Zm-5.63.82a8,8,0,0,0,1.38,1,4.85,4.85,0,0,0,3.26.43,1.05,1.05,0,0,0,.63-.66c0-.2-.3-.53-.54-.67C33.51,21.46,32,21.67,30.25,22.22Zm-10.78-4.5c.16,0,.37.08.48,0a3.5,3.5,0,0,0,.93-.82c.1-.14,0-.67-.16-.71a1.93,1.93,0,0,0-1.22-.1,18.32,18.32,0,0,0-2.33,1.29c-.15.1-.32.49-.27.53s.45.38.64.35C18.19,18.13,18.82,17.91,19.47,17.72ZM18.68,6.11c.39.24.73.6.91.53a1.17,1.17,0,0,0,.68-.76c.06-.4-.74-1-1.06-.82S18.9,5.63,18.68,6.11ZM16.24,4.93a7.79,7.79,0,0,0,1-.33c.12-.06.2-.22.3-.34C17.34,4.15,17.15,4,17,4a1.88,1.88,0,0,0-.76.32,2,2,0,0,0-.38.47Z"/><path class="cls-1" d="M28.68,80.27a49.31,49.31,0,0,1,3-5.16,63.59,63.59,0,0,1,4.49-6,65,65,0,0,0,4.81-7,1.48,1.48,0,0,0-.17-1.91,20.37,20.37,0,0,1-3.3-7.41c-.75-2.83-.1-5.61.32-8.4a5,5,0,0,1,.18-.63,2.3,2.3,0,0,1,1.83-1.67c.64-.14,1.4.68,1.65,1.75a19.46,19.46,0,0,1,.57,3.37c.17,3.47.24,6.94.36,10.42a1.8,1.8,0,0,0,.18.57c.22-.12.56-.17.66-.35.35-.67.59-1.4.93-2.09a42.13,42.13,0,0,0,3.26-7.29c.08-.31.26-.6.37-.91a17.59,17.59,0,0,0,1.1-3.23c.37-2.53,1.34-5,1.37-7.56,0-1.78.26-3.57.36-5.35,0-.72-.28-.87-1-.69a3.44,3.44,0,0,1-1.41.15,21.34,21.34,0,0,1-2.83-.83c-1.11-.39-1.27-.87-.86-2a1.55,1.55,0,0,0,.16-.92c-.92-2.82-.38-5.59.2-8.36a9.56,9.56,0,0,1,.52-1.73,1,1,0,0,1,1.45-.62c.25.1.45.31.69.43a1.15,1.15,0,0,0,1.68-.53c.68-1.53,1.89-2,3.41-.72a10.57,10.57,0,0,1,4.14,7.67c0,.71.14,1.22.91,1.51s.69.81.34,1.36a2.74,2.74,0,0,1-.73.85q-1.31.86-2.67,1.59c-.72.38-1.49.69-2.23,1a1.34,1.34,0,0,0-.9,1.41,18,18,0,0,1,.06,2.43c-.2,2.49,0,5-.81,7.45a9,9,0,0,0-.22,1.28,19,19,0,0,1-2,6.86,5.64,5.64,0,0,0-.7,2.38,16.6,16.6,0,0,0,1.66-1.58,21.34,21.34,0,0,1,7.79-6.08,7.1,7.1,0,0,0,1.4-.86c.56-.49,1-1.07,1.57-1.61a3.25,3.25,0,0,1,.43-.47,2.83,2.83,0,0,1,.59-.25,2.18,2.18,0,0,1,.21.72,4.09,4.09,0,0,1-.24.78,14.7,14.7,0,0,1-2.64,4.65c-1.89,2.6-4.07,4.83-7.26,5.84-1.46.46-2.87,1.07-4.33,1.5A1.44,1.44,0,0,0,46,55c-.53,1.19-1.07,2.38-1.68,3.53S42.86,61,42.21,62.22a41.39,41.39,0,0,1-3.91,6.19c-.86,1.12-1.89,2.12-2.75,3.24A58.1,58.1,0,0,0,29.1,82.13M47.19,26.29a1.39,1.39,0,0,0,.91,1.22,12.91,12.91,0,0,1,1.7.95c.86.52,1.49.46,1.9-.41a5.69,5.69,0,0,1,1.63-2,1.44,1.44,0,0,0,.45-1.89A12.68,12.68,0,0,0,53,22.54c-.72-1.09-1.49-2.14-2.29-3.18a4.76,4.76,0,0,0-1-.86c-.83-.61-1.16-.55-1.71.29-.18.28-.33.57-.4.69A19.55,19.55,0,0,0,47.19,26.29Zm-5.88,29a56.81,56.81,0,0,1-.19-6.65,33.76,33.76,0,0,0-.53-4.35c-.06-.36-.43-.66-.66-1-.31.28-.78.51-.88.85a15.37,15.37,0,0,0-.79,3.33,14.11,14.11,0,0,0,1.36,8.22c.39.7.62,1.5,1,2.24a10.61,10.61,0,0,0,.8,1.19A29.54,29.54,0,0,0,41.31,55.24Zm8.29-4c-.08.1-.06.28-.09.43a2,2,0,0,0,.59.05,12.26,12.26,0,0,0,6.62-4.49,10.35,10.35,0,0,0,1.93-2.82A21.65,21.65,0,0,0,49.6,51.22ZM55.79,22.3a11.36,11.36,0,0,0-3.53-5.73A2.71,2.71,0,0,0,51.12,16a1,1,0,0,0-.84.23,1,1,0,0,0,0,.89,6.89,6.89,0,0,0,.79,1C52,19.4,53,20.62,53.85,21.91a15.53,15.53,0,0,1,.9,2.08,2.9,2.9,0,0,0,.48.58l.67-.63A8.63,8.63,0,0,0,55.79,22.3ZM45.38,26.67a2,2,0,0,0,.35.6c.24-.18.57-.31.69-.55s0-.52-.06-.79a14.39,14.39,0,0,1,.37-6,4.12,4.12,0,0,0,.06-1.61,2.28,2.28,0,0,0-.37-.75l-.65.65A20,20,0,0,0,45.38,26.67Zm11.73-.4c.14-.12.29-.45.23-.53a.91.91,0,0,0-.62-.37,5.28,5.28,0,0,0-3.58,2,10.85,10.85,0,0,0-.9,1.33A11.35,11.35,0,0,0,57.11,26.27ZM46,28.2a.59.59,0,0,0-.44.37.56.56,0,0,0,.24.5c1,.3,2,.56,3,.79.15,0,.36-.18.54-.28-.12-.21-.18-.5-.36-.61a9.38,9.38,0,0,0-1.22-.54A15.48,15.48,0,0,0,46,28.2Z"/></svg>