<svg id="Layer_1" data-name="Layer 1" xmlns="http://www.w3.org/2000/svg" viewBox="0 0 290 97"><defs><style>.cls-1{fill:#f7a896;}.cls-2{fill:#b8a584;}</style></defs><path class="cls-1" d="M132.29,83.71a3.4,3.4,0,0,1,3.56-3.45,3.28,3.28,0,0,1,2.48,1l-.46.45a2.68,2.68,0,0,0-2-.8,2.81,2.81,0,1,0,0,5.62,2.63,2.63,0,0,0,2-.82l.46.46a3.29,3.29,0,0,1-2.49,1A3.4,3.4,0,0,1,132.29,83.71Z"/><path class="cls-1" d="M139.84,83.71a3.56,3.56,0,1,1,3.56,3.45A3.41,3.41,0,0,1,139.84,83.71Zm6.4,0a2.85,2.85,0,1,0-2.84,2.81A2.75,2.75,0,0,0,146.24,83.71Z"/><path class="cls-1" d="M149.29,80.32H150v6.16h3.8v.62h-4.52Z"/><path class="cls-1" d="M155.73,80.32h.71v6.16h3.8v.62h-4.51Z"/><path class="cls-1" d="M167,86.48v.62h-4.79V80.32h4.65v.62h-3.94v2.41h3.51V84h-3.51v2.52Z"/><path class="cls-1" d="M168.72,83.71a3.41,3.41,0,0,1,3.56-3.45,3.28,3.28,0,0,1,2.48,1l-.45.45a2.71,2.71,0,0,0-2-.8,2.81,2.81,0,1,0,0,5.62,2.65,2.65,0,0,0,2-.82l.45.46a3.29,3.29,0,0,1-2.49,1A3.41,3.41,0,0,1,168.72,83.71Z"/><path class="cls-1" d="M178.25,80.94h-2.39v-.62h5.49v.62H179V87.1h-.71Z"/><path class="cls-1" d="M183.22,80.32h.71V87.1h-.71Z"/><path class="cls-1" d="M192.43,80.32l-3,6.78h-.71l-3-6.78h.77l2.6,5.89,2.61-5.89Z"/><path class="cls-1" d="M198.93,86.48v.62h-4.8V80.32h4.65v.62h-3.93v2.41h3.51V84h-3.51v2.52Z"/><path class="cls-2" d="M65.62,72.68H51.53a2.74,2.74,0,0,0,.08-.7A2.43,2.43,0,0,0,51,70.34l-15.88-23L34.92,47V69.49a3,3,0,0,0,.23,1.11,6.29,6.29,0,0,0,.55,1c.21.31.39.56.54.74l.24.31H25.56l.66-.81a4.38,4.38,0,0,0,.9-2.66V23.27a9.81,9.81,0,0,0-.45-2.74A10.4,10.4,0,0,0,25.56,18l5.58.47a4.06,4.06,0,0,1,2.71,1.32,4,4,0,0,1,1.07,2.77V43.86L52.74,26a1.4,1.4,0,0,0,.28-.9,4.71,4.71,0,0,0-.37-1.43,12.29,12.29,0,0,0-1.31-2.3c-.62-.89-1.21-1.67-1.76-2.32l-.82-1A21,21,0,0,1,51.28,18c1.52,0,3.27,0,5.25,0h5.22l2.3,0-1.59.62A9.72,9.72,0,0,0,60,20.11q-1.64,1.44-4.9,4.62t-6.78,6.76c-2.36,2.4-4.38,4.46-6.07,6.21l-2.53,2.61L61.75,70.19A7.66,7.66,0,0,0,64,71.87Z"/><path class="cls-2" d="M96,65.51a5.48,5.48,0,0,0,0,.7,8.43,8.43,0,0,0,.35,2.36,9.6,9.6,0,0,0,.94,2.16,11.36,11.36,0,0,0,1,1.52l.47.55h0c-.13,0-.68-.07-1.66-.21l-3.55-.53-3.8-.55a2.47,2.47,0,0,1-1.56-.85A2.5,2.5,0,0,1,87.57,69a5.13,5.13,0,0,1-.81.47l-1,.46h0a26,26,0,0,1-7.64,2.54,21.91,21.91,0,0,1-3.48.27h-.81a14.13,14.13,0,0,1-4.8-.93,8.69,8.69,0,0,1-2.69-1.64,6.56,6.56,0,0,1-2.23-4.88v-.39a1.65,1.65,0,0,1,0-.31q0-.39.12-.78a15.27,15.27,0,0,1,.55-2.11A13.77,13.77,0,0,1,67,57.86,16.4,16.4,0,0,1,70.18,55a26.81,26.81,0,0,1,7.21-3.24,95.4,95.4,0,0,1,10.15-2.46l0,0,0-1.44c0-1-.06-2.09-.08-3.39s-.07-2.52-.12-3.65a23.66,23.66,0,0,0-.19-2.36c-.24-.91-1.15-1.92-2.74-3a8.3,8.3,0,0,0-4.91-1.49c-.26,0-.52,0-.78,0A6.05,6.05,0,0,0,75,36.06a8.06,8.06,0,0,0-1.29,2.3A14.34,14.34,0,0,0,73,40.74,19.88,19.88,0,0,0,72.67,44v.39c0,.28,0,.57,0,.85v.28a10.23,10.23,0,0,1-.36,2.61l-.11.27a4.38,4.38,0,0,1-1.84,2.38,4.48,4.48,0,0,1-2.41.71c-.21,0-.42,0-.63,0a4.26,4.26,0,0,1-3.51-3.16,11.7,11.7,0,0,1-.15-1.84,12.24,12.24,0,0,1,4-8.73,13.63,13.63,0,0,1,5.31-3.05,19.9,19.9,0,0,1,5.5-.89h1a35.48,35.48,0,0,1,4.37.27,25.34,25.34,0,0,1,5.66,1.21,11.28,11.28,0,0,1,5.26,3.82,5.92,5.92,0,0,1,1.13,3.43ZM77.32,69.68a5,5,0,0,0,3,1.29h.51a11.47,11.47,0,0,0,3-.41,12.78,12.78,0,0,0,2.59-1c.72-.37,1.09-.61,1.12-.72s0-1,0-3,0-4.23,0-6.77V49.36l-.82.19c-.55.13-1.24.32-2.07.55s-1.69.51-2.57.82a13.85,13.85,0,0,0-6.4,4.76,11.87,11.87,0,0,0-.92,1.48A19.78,19.78,0,0,0,73.45,60,9.21,9.21,0,0,0,73,62.85v.43A7.11,7.11,0,0,0,74.7,67a25.23,25.23,0,0,0,2.42,2.55Z"/><path class="cls-2" d="M101.38,72a4.19,4.19,0,0,0,.94-2.65V23.38a9.54,9.54,0,0,0-.47-2.73,10.78,10.78,0,0,0-1.13-2.57l5.62.47a4.06,4.06,0,0,1,2.71,1.32,4,4,0,0,1,1.07,2.77v47a2.87,2.87,0,0,0,.23,1.07,6,6,0,0,0,.55,1c.21.31.39.57.55.78l.23.27h-11Z"/><path class="cls-2" d="M146.74,65.51c0,.23,0,.47,0,.7a8.1,8.1,0,0,0,.36,2.36,9.15,9.15,0,0,0,.93,2.16,10.44,10.44,0,0,0,1.06,1.52l.46.55h0q-.19,0-1.65-.21l-3.55-.53-3.81-.55A2.46,2.46,0,0,1,138.32,69a5.28,5.28,0,0,1-.82.47l-1,.46h0a26.1,26.1,0,0,1-7.65,2.54,21.78,21.78,0,0,1-3.47.27h-.82a14.22,14.22,0,0,1-4.8-.93,8.81,8.81,0,0,1-2.69-1.64,6.87,6.87,0,0,1-2-3.32,6.65,6.65,0,0,1-.19-1.56v-.39a1.1,1.1,0,0,1,0-.31,7,7,0,0,1,.11-.78,16.83,16.83,0,0,1,.55-2.11,14,14,0,0,1,2.18-3.86,16.69,16.69,0,0,1,3.2-2.88,26.86,26.86,0,0,1,7.22-3.24,95.82,95.82,0,0,1,10.14-2.46l0,0,0-1.44c0-1-.05-2.09-.08-3.39s-.06-2.52-.12-3.65a20.9,20.9,0,0,0-.19-2.36c-.23-.91-1.14-1.92-2.73-3a8.31,8.31,0,0,0-4.92-1.49c-.26,0-.52,0-.77,0a6.08,6.08,0,0,0-3.75,2.15,8.57,8.57,0,0,0-1.29,2.3,15.37,15.37,0,0,0-.74,2.38,19.86,19.86,0,0,0-.27,3.24v.39a8.06,8.06,0,0,0,0,.85v.28a10.67,10.67,0,0,1-.35,2.61l-.12.27a4.41,4.41,0,0,1-1.83,2.38,4.51,4.51,0,0,1-2.42.71c-.21,0-.42,0-.62,0a4.23,4.23,0,0,1-3.51-3.16,10.65,10.65,0,0,1-.16-1.84,12.25,12.25,0,0,1,4-8.73,13.66,13.66,0,0,1,5.3-3.05,19.9,19.9,0,0,1,5.5-.89h1a35.72,35.72,0,0,1,4.37.27,25.26,25.26,0,0,1,5.65,1.21,11.31,11.31,0,0,1,5.27,3.82,6,6,0,0,1,1.13,3.43Zm-18.68,4.17a5,5,0,0,0,3,1.29h.51a11.47,11.47,0,0,0,3-.41,12.89,12.89,0,0,0,2.6-1q1.07-.56,1.11-.72s0-1,0-3,0-4.23,0-6.77V49.36l-.82.19c-.54.13-1.23.32-2.07.55s-1.69.51-2.57.82a13.9,13.9,0,0,0-6.4,4.76,12.32,12.32,0,0,0-.91,1.48A17.81,17.81,0,0,0,124.2,60a9.23,9.23,0,0,0-.47,2.84v.43A7.12,7.12,0,0,0,125.45,67a25.23,25.23,0,0,0,2.42,2.55Z"/><path class="cls-2" d="M176.5,69.56V47.49c0-.5-.06-1.41-.19-2.75a16.61,16.61,0,0,0-1.19-4.49,9,9,0,0,0-3.26-4.07,8.25,8.25,0,0,0-4.09-1.29,6.82,6.82,0,0,0-3.38,1.19,10.27,10.27,0,0,0-3.53,4.11V70.54a1.48,1.48,0,0,0,.24.78,4.83,4.83,0,0,0,.54.74,5.65,5.65,0,0,0,.55.55l.23.19h-11l.67-.58a2.6,2.6,0,0,0,.89-1.88V37.5a5.39,5.39,0,0,0-.44-2,6.1,6.1,0,0,0-1.12-1.83l5.62.31a5.1,5.1,0,0,1,2.71,1,2.4,2.4,0,0,1,1.07,2v2.42a10.94,10.94,0,0,1,3.53-3.8A10.76,10.76,0,0,1,170.58,34h.89a31,31,0,0,1,4,.37,9.83,9.83,0,0,1,4.82,2.21l.08.07a11.47,11.47,0,0,1,1.93,2.15A9.89,9.89,0,0,1,184,43.27h0c.08.55.15,1.08.2,1.6.08.78.13,1.36.16,1.72q.19,3.7.19,9.48c0,.65,0,2.33,0,5s0,5.62-.1,8.72A3,3,0,0,0,184.6,71a3.57,3.57,0,0,0,.5.89,4.42,4.42,0,0,0,.53.57l.24.19-11,.12h0c.06,0,.2-.15.43-.45a7.19,7.19,0,0,0,.74-1.21A3.39,3.39,0,0,0,176.5,69.56Z"/><path class="cls-2" d="M197.22,70.93a1.46,1.46,0,0,0,.23.78,4.89,4.89,0,0,0,.55.74,5.7,5.7,0,0,0,.54.55l.24.19h-11l.66-.58a2.58,2.58,0,0,0,.9-1.88V37.89a5.22,5.22,0,0,0-.45-2,6.29,6.29,0,0,0-1.11-1.83l5.61.31a5.19,5.19,0,0,1,2.71,1,2.41,2.41,0,0,1,1.08,2Zm-4.29-41.07a4.46,4.46,0,0,1-3.32-1.39,4.7,4.7,0,0,1,0-6.63,4.67,4.67,0,0,1,6.63,0,4.7,4.7,0,0,1,0,6.63A4.45,4.45,0,0,1,192.93,29.86Z"/><path class="cls-1" d="M229.94,21c1-2.41,3.05-5.11,5.13-5.3.71-.07,1.23,0,1.41.82,0,.16.12.41.22.44,1.36.35,2.54,1.48,4.14.86,1.29-.49,1.52-.29,1.93,1a4.6,4.6,0,0,1-.21,3.62c-1,1.94-2.12,3.85-3.22,5.75A2.69,2.69,0,0,1,237,29.4a7.47,7.47,0,0,1-3.29-.61c-2.67-1.1-3.14-1-4.38,1.54-2,4.15-3.9,8.38-5.81,12.59-.56,1.23-1,2.5-1.57,3.75a5.26,5.26,0,0,0-.31,3.3c.33,1.43.53,2.89.83,4.33.14.65.41.67.9.17.82-.85,1.63-1.71,2.49-2.51a8.38,8.38,0,0,1,3.64-1.71c.91-.26,1.3.14,1,1.08a8.43,8.43,0,0,1-2.88,4.47c-1.06.87-2.12,1.88-3.64,2a.76.76,0,0,0-.7,1c.28,1.72.54,3.46.85,5.18.12.65.52.77,1.32.39,1.43-.68,2.86-1.34,4.23-2.13,1.65-1,3.24-2,4.85-3,.24-.15.43-.39.67-.51s.48-.14.59,0a.71.71,0,0,1,.15.59,4.36,4.36,0,0,1-.41,1.11c-.52.93-1.08,1.85-1.63,2.76a10.49,10.49,0,0,1-5.37,4.2,27.56,27.56,0,0,1-3.39,1,1.34,1.34,0,0,0-1.12,1.27c-.2,1.39-.42,2.78-.72,4.16a25.24,25.24,0,0,1-1.07,3.73c-1.84,4.55-.09.35-2,4.87a6.15,6.15,0,0,1-.84,1.26.5.5,0,0,1-.45.08.45.45,0,0,1-.18-.4c.14-.48.33-1,.52-1.42,2.14-5,.8-1.27,2.42-6.51a30.64,30.64,0,0,0,.53-16c-.17-.78-.34-1.55-.46-2.33a2.72,2.72,0,0,0-1.78-2.26,25.28,25.28,0,0,1-7.84-5.19,5.19,5.19,0,0,1-2-3.62c0-.64.19-.84.8-.63,2.66.94,5.29,1.95,7.3,4.07a.69.69,0,0,0,.13.11c.55.23,1.23.78,1.63.62.71-.28.28-1.09.18-1.66-.59-3.38-1.21-6.75-1.79-10.13a29.71,29.71,0,0,1-.36-3,1.31,1.31,0,0,0-1-1.33,16.73,16.73,0,0,1-6.84-4.5,11.38,11.38,0,0,1-2.72-5.36,2.61,2.61,0,0,1,.15-1.48c.11-.32.51-.54.78-.81.25.27.63.51.72.83a4.2,4.2,0,0,0,1.52,2c.54.47,1,1.07,1.48,1.57q2.19,2.1,4.41,4.17c.14.14.54.26.58.21a1.27,1.27,0,0,0,.3-.73c0-1.29-.09-2.59-.15-3.88a2.59,2.59,0,0,0-1-1.88c-1.49-1.27-2.94-2.6-4.41-3.91a2.28,2.28,0,0,1-.73-2c.18-1.73.46-3.44.72-5.16a7.3,7.3,0,0,1,2-3.68,2.32,2.32,0,0,1,2.88-.77,1.52,1.52,0,0,0,1.69-.25,2.27,2.27,0,0,1,3,.11c.72.58,1.84.61,2.23,1.68.07.2.57.31.88.34,1.33.15,1.64.38,2,1.58a21.54,21.54,0,0,1,.81,2.55,6.77,6.77,0,0,1-.9,4.23c-.32.6-.68,1.18-.94,1.8-.89,2.15-2.7,3.07-4.79,3.61-.43.11-.89.15-1.33.25-1.11.23-1.26.39-1.17,1.43.27,2.91.48,5.83.85,8.74s.85,5.66,1.34,8.49a21.4,21.4,0,0,0,.82,2.59c.44-1.17.71-2,1.06-2.84,1.57-3.56,3.13-7.13,4.77-10.66a32,32,0,0,1,2.2-3.8,2.17,2.17,0,0,0,.16-2.53l-.09-.14c-.95-2-.91-4,.91-5.5a11.71,11.71,0,0,0,1.25,1,.72.72,0,0,0,.7-.13,14.11,14.11,0,0,1,3.1-3.07.9.9,0,0,0,.11-1.23c-.27-.46-.7-.34-1-.15a6.62,6.62,0,0,0-1.53,1C232,18.58,230.81,20.07,229.94,21Zm1.71,3.27-.49,2.6c-.17-.77.25-4.13,0-4.88a.57.57,0,0,0-1.05-.18,2.08,2.08,0,0,0-.42,2.35,5.93,5.93,0,0,1,.37.94c.17.55.12,1.39,1.13.8,0,0,.37.22.41.37.17.58.42.7,1,.44.76-.35,1.59-.55,2.36-.89a1.55,1.55,0,0,0,.85-.7,28,28,0,0,0,1.58-6c0-.25-.1-.65-.26-.72a1.1,1.1,0,0,0-.91.05,18,18,0,0,0-3.71,3.42c-.38.52-.29,1.12-.64,1.68A3.4,3.4,0,0,0,231.65,24.29Zm-9.67-11c0-.06-.11-.27-.18-.48a14.23,14.23,0,0,0-.53-1.42c-.45-.88-1.2-1-1.87-.29a5.62,5.62,0,0,0-1.18,1.8c-.55,1.47-.86,3-1.44,4.48a4.18,4.18,0,0,0,.29,3.7c.16.29.29.6.44.9.42.84.72.93,1.4.39s1.3-1.06,1.91-1.63a2.11,2.11,0,0,0,.65-1A19.88,19.88,0,0,0,222,13.27Zm-.83,39.88A2,2,0,0,0,220,51.37a6.59,6.59,0,0,1-1.08-.76c-1.39-1-2.73-2.15-4.18-3.09a13.66,13.66,0,0,0-2.64-1.08c-.14,0-.43,0-.46,0a.92.92,0,0,0-.09.61,1.78,1.78,0,0,0,.41.72,19.54,19.54,0,0,0,2.41,2.32c1.81,1.31,3.71,2.5,5.6,3.7a1,1,0,0,0,.93,0C221.1,53.68,221.12,53.26,221.15,53.15Zm12,8.23a24.3,24.3,0,0,1-2.07,1.34c-1.94,1-3.91,2-5.86,2.93-.25.12-.61.27-.66.48a2.65,2.65,0,0,0,0,1.25,1.47,1.47,0,0,0,.86,0,28.58,28.58,0,0,0,2.86-1C230.6,65.41,232.48,64,233.14,61.38ZM208.91,24.94c0,.17-.15.33-.11.46a5.24,5.24,0,0,0,.4.91c1.69,3,4.39,4.85,7.36,6.38a1,1,0,0,0,.48.14.8.8,0,0,0,.54-.27.68.68,0,0,0-.08-.6,2.49,2.49,0,0,0-.7-.43,7.74,7.74,0,0,1-1.16-.66A30.57,30.57,0,0,1,211,26.29a7.28,7.28,0,0,0-1.55-1.24C209.31,25,209.11,25,208.91,24.94Zm28.71,1a2.21,2.21,0,0,0,.62-.51,15.39,15.39,0,0,0,2-5.46.89.89,0,0,0-.53-1.09,1,1,0,0,0-1.34.33A2.39,2.39,0,0,0,238,20c-.48,1.67-1,3.33-1.41,5C236.38,25.69,236.76,26.07,237.62,26ZM224.5,56.69a8.83,8.83,0,0,0,4.7-4.49.55.55,0,0,0,0-.47c-.05-.08-.29-.09-.42,0a9.31,9.31,0,0,0-5,4.07c-.1.15-.15.53-.06.59A3.37,3.37,0,0,0,224.5,56.69Zm-.07-43.55c-.05-.55-.35-.93-.85-.88-.27,0-.51.46-.74.74-.06.07,0,.21,0,.32-.11,1.79-.24,3.57-.32,5.35,0,.28.23.56.35.85.28-.15.67-.22.82-.45a2.82,2.82,0,0,0,.45-1.25C224.25,16.26,224.33,14.7,224.43,13.14Zm-9,4.84a7.08,7.08,0,0,0,.46-.91c.59-1.8.64-3.79,1.81-5.41.11-.15,0-.5-.08-.75-.22.12-.54.18-.66.37-1,1.56-2,3.14-2.9,4.74-.17.29-.29.88-.13,1A7,7,0,0,0,215.48,18Zm-2.6-1.41a2.85,2.85,0,0,1,.18-.79c1.06-1.79,2.15-3.56,3.21-5.35.12-.19.21-.58.11-.69a.84.84,0,0,0-.72-.21,2.29,2.29,0,0,0-1,.64A7.07,7.07,0,0,0,212.88,16.57Zm3.87,6.63a7.45,7.45,0,0,0-1.66-3.8,5.31,5.31,0,0,0-1.1-1c-.62-.4-1.46-.36-1.5,0a4,4,0,0,0,.29,1.41c0,.09.15.16.23.23ZM225,18.54a2.59,2.59,0,0,0,1.57-2.72,20.34,20.34,0,0,0-.86-3.87c0-.08-.37-.18-.43-.13a.84.84,0,0,0-.28.52c0,1.45.07,2.91.09,4.36C225.08,17.28,225,17.86,225,18.54Zm13.87,7.83.42.18A15.6,15.6,0,0,0,241.9,21a3.28,3.28,0,0,0-.13-1.48c-.06-.24-.33-.43-.58-.73a19.09,19.09,0,0,1-2,6.39A4.52,4.52,0,0,0,238.85,26.37Zm-5.62.82a7.68,7.68,0,0,0,1.38,1,4.82,4.82,0,0,0,3.25.43,1,1,0,0,0,.63-.66c0-.19-.29-.53-.53-.67C236.49,26.43,235,26.64,233.23,27.19Zm-10.78-4.5c.15,0,.37.08.48,0a3.45,3.45,0,0,0,.92-.82.79.79,0,0,0-.15-.71,2,2,0,0,0-1.23-.1,17.55,17.55,0,0,0-2.32,1.29.81.81,0,0,0-.28.53c.17.17.45.38.65.35C221.17,23.1,221.8,22.88,222.45,22.69Zm-.8-11.61c.4.24.73.6.92.53a1.15,1.15,0,0,0,.67-.76c.06-.4-.73-1-1.05-.82S221.88,10.6,221.65,11.08ZM219.21,9.9a7.79,7.79,0,0,0,1-.33c.13-.06.2-.22.3-.34-.18-.11-.36-.31-.53-.3a1.86,1.86,0,0,0-.77.32,1.92,1.92,0,0,0-.37.47Z"/><path class="cls-1" d="M231.66,85.24a49.23,49.23,0,0,1,3-5.16,62,62,0,0,1,4.5-6,64.94,64.94,0,0,0,4.8-7,1.47,1.47,0,0,0-.17-1.91,20.54,20.54,0,0,1-3.3-7.41c-.75-2.83-.09-5.61.33-8.4a4.91,4.91,0,0,1,.17-.63,2.33,2.33,0,0,1,1.84-1.67c.63-.14,1.4.68,1.64,1.75a20.48,20.48,0,0,1,.58,3.37c.17,3.47.23,6.95.35,10.42a2.51,2.51,0,0,0,.18.57c.23-.11.57-.17.66-.35.36-.67.6-1.4.94-2.09a42.09,42.09,0,0,0,3.25-7.29c.09-.31.26-.6.37-.91a17,17,0,0,0,1.1-3.22c.37-2.54,1.34-5,1.37-7.57,0-1.78.27-3.57.37-5.35,0-.72-.28-.87-1-.69a3.42,3.42,0,0,1-1.41.15,21.79,21.79,0,0,1-2.83-.83c-1.1-.39-1.27-.87-.85-2a1.63,1.63,0,0,0,.16-.92c-.93-2.81-.39-5.59.19-8.36a11.49,11.49,0,0,1,.52-1.73,1,1,0,0,1,1.46-.62c.24.1.45.31.69.43a1.13,1.13,0,0,0,1.67-.53c.68-1.53,1.9-2,3.41-.72a10.59,10.59,0,0,1,4.15,7.67c0,.71.13,1.22.91,1.51.62.23.69.81.34,1.36a2.77,2.77,0,0,1-.74.85c-.86.57-1.76,1.1-2.67,1.59-.72.38-1.48.69-2.23,1a1.32,1.32,0,0,0-.89,1.41,19.77,19.77,0,0,1,.06,2.43c-.2,2.49,0,5-.81,7.45a6.85,6.85,0,0,0-.22,1.28A18.81,18.81,0,0,1,251.49,54a5.64,5.64,0,0,0-.7,2.38,14.65,14.65,0,0,0,1.66-1.58,21.37,21.37,0,0,1,7.8-6.08,7,7,0,0,0,1.39-.86c.57-.49,1.05-1.07,1.57-1.61a3.27,3.27,0,0,1,.44-.47,2.83,2.83,0,0,1,.59-.25,2.43,2.43,0,0,1,.2.72,3.48,3.48,0,0,1-.24.78,14.87,14.87,0,0,1-2.63,4.65c-1.9,2.6-4.08,4.83-7.27,5.84-1.45.46-2.86,1.07-4.33,1.5a1.48,1.48,0,0,0-1,.91c-.52,1.19-1.07,2.38-1.67,3.53s-1.44,2.43-2.08,3.69a40.66,40.66,0,0,1-3.92,6.19c-.86,1.12-1.88,2.12-2.74,3.24a57,57,0,0,0-6.45,10.48m18.08-55.84a1.38,1.38,0,0,0,.92,1.22,12.8,12.8,0,0,1,1.69,1c.87.52,1.49.46,1.9-.41a5.8,5.8,0,0,1,1.63-2,1.43,1.43,0,0,0,.45-1.89,14.14,14.14,0,0,0-.76-1.62c-.72-1.09-1.5-2.14-2.29-3.18a4.82,4.82,0,0,0-1-.86c-.82-.61-1.16-.55-1.71.3-.17.27-.33.56-.4.68A19.79,19.79,0,0,0,250.16,31.26Zm-5.87,29a59.09,59.09,0,0,1-.2-6.65,35.59,35.59,0,0,0-.52-4.35c-.06-.36-.44-.66-.67-1-.3.28-.77.51-.88.85a15.35,15.35,0,0,0-.78,3.33,14,14,0,0,0,1.35,8.22c.4.7.62,1.5,1,2.24a11,11,0,0,0,.79,1.2A29.83,29.83,0,0,0,244.29,60.21Zm8.28-4c-.08.1-.06.28-.09.43a2.09,2.09,0,0,0,.6.05,12.27,12.27,0,0,0,6.61-4.49,10.61,10.61,0,0,0,1.94-2.82A21.74,21.74,0,0,0,252.57,56.19Zm6.19-28.92a11.34,11.34,0,0,0-3.52-5.73,2.75,2.75,0,0,0-1.15-.56,1,1,0,0,0-.83.23,1,1,0,0,0,0,.89,6.28,6.28,0,0,0,.79,1c1,1.24,1.94,2.46,2.82,3.76a13.73,13.73,0,0,1,.89,2.07,2.65,2.65,0,0,0,.49.58l.67-.63A8.61,8.61,0,0,0,258.76,27.27Zm-10.4,4.37a2,2,0,0,0,.34.6c.24-.18.57-.31.7-.55s0-.52-.06-.79a14.38,14.38,0,0,1,.36-6,4.12,4.12,0,0,0,.07-1.61c0-.26-.25-.5-.38-.75l-.65.65A19.86,19.86,0,0,0,248.36,31.64Zm11.73-.4c.14-.12.28-.45.23-.52a.91.91,0,0,0-.62-.38,5.31,5.31,0,0,0-3.59,2,10.85,10.85,0,0,0-.9,1.33A11.45,11.45,0,0,0,260.09,31.24Zm-11.16,1.93a.62.62,0,0,0-.45.37.58.58,0,0,0,.24.5c1,.3,2,.56,3,.79.15,0,.35-.18.53-.28-.11-.21-.18-.5-.35-.61a9.46,9.46,0,0,0-1.23-.54A15.64,15.64,0,0,0,248.93,33.17Z"/></svg>